/* XPM */
static char *sycle[] = {
/* columns rows colors chars-per-pixel */
"64 64 2 1 ",
"  c green",
". c None",
/* pixels */
"................................................................",
"................................................................",
"................................................................",
"................................................................",
"................................................................",
".............................      .............................",
"........................                ........................",
"......................                     .....................",
"...................                          ...................",
"..................           ......           ..................",
"................         ..............         ................",
"...............       ....................       ...............",
"..............      ........................      ..............",
".............      ..........................      .............",
"............      .............................     ............",
"...........     ................................     ...........",
"..........     ..................................     ..........",
"..........     ...................................    ..........",
".........     ....................................     .........",
"........     ......................................     ........",
"........    ........................................    ........",
".......     ........................................     .......",
".......    ..........................................    .......",
".......    ..........................................    .......",
"......     ..........................................     ......",
"......    ............................................    ......",
"......    ............................................    ......",
"......    ............................................    ......",
"......    ............................................    ......",
".....    ..............................................    .....",
".....    ..............................................    .....",
".....    ..............................................    .....",
".....    ..............................................    .....",
".....    ..............................................    .....",
".....    ..............................................    .....",
"......    ............................................    ......",
"......    ............................................    ......",
"......    ............................................    ......",
"......    ............................................    ......",
"......     ..........................................     ......",
".......    ..........................................    .......",
".......    ..........................................    .......",
"........    ........................................    ........",
"........    ........................................    ........",
".........    ......................................    .........",
".........     ....................................     .........",
"..........     ..................................     ..........",
"..........     ..................................     ..........",
"...........     ................................     ...........",
"............      ............................      ............",
".............      ..........................      .............",
"..............      ........................      ..............",
"...............       ....................       ...............",
"................         ..............         ................",
"..................           ......           ..................",
"...................                          ...................",
"......................                     .....................",
"........................                ........................",
".............................      .............................",
"................................................................",
"................................................................",
"................................................................",
"................................................................",
"................................................................"
};
